<svg width="49" height="15" viewBox="0 0 49 15" fill="none" xmlns="http://www.w3.org/2000/svg">
<path d="M-5.46575e-05 0.107994H8.09995V1.76399H1.87195V6.15599H7.19995V7.81199H1.87195V12.492H8.09995V14.148H-5.46575e-05V0.107994ZM20.6935 3.36599L17.1655 14.148H15.3475L11.8195 3.36599L11.8915 6.37199V14.148H10.0195V0.107994H12.7375L16.2475 10.908L19.7755 0.107994H22.4935V14.148H20.6215V6.37199L20.6935 3.36599ZM27.9861 -5.24521e-06H30.5961L34.4661 14.148H32.4501L31.5681 10.764H27.0321L26.1501 14.148H24.1161L27.9861 -5.24521e-06ZM29.3001 2.10599L27.4641 9.10799H31.1361L29.3001 2.10599ZM38.0498 0.107994V14.148H36.1778V0.107994H38.0498ZM48.0947 14.148H40.5527V0.107994H42.4247V12.492H48.0947V14.148Z" fill="#121212"/>
</svg>
