<svg width="80" height="15" viewBox="0 0 80 15" fill="none" xmlns="http://www.w3.org/2000/svg">
<path d="M1.87195 8.78398V14.256H-5.46575e-05V0.215981H4.15795C6.26395 0.215981 8.65795 0.91798 8.65795 4.31998V4.67998C8.65795 6.92998 7.61395 7.99198 6.31795 8.45998L8.65795 14.256H6.62395L4.49995 8.78398H1.87195ZM1.87195 7.14598H4.21195C5.29195 7.14598 6.74995 6.74998 6.74995 4.62598V4.39198C6.74995 2.26798 5.29195 1.87198 4.21195 1.87198H1.87195V7.14598ZM15.298 14.472C11.914 14.472 10.276 12.456 10.276 7.59598V6.87598C10.276 2.01598 11.914 -1.95503e-05 15.298 -1.95503e-05C18.664 -1.95503e-05 20.302 2.01598 20.302 6.87598V7.59598C20.302 12.456 18.664 14.472 15.298 14.472ZM15.226 12.816H15.352C17.512 12.816 18.376 11.16 18.376 7.59598V6.87598C18.376 3.31198 17.512 1.65598 15.352 1.65598H15.226C13.066 1.65598 12.202 3.31198 12.202 6.87598V7.59598C12.202 11.16 13.066 12.816 15.226 12.816ZM33.0861 3.47398L29.5581 14.256H27.7401L24.2121 3.47398L24.2841 6.47998V14.256H22.4121V0.215981H25.1301L28.6401 11.016L32.1681 0.215981H34.8861V14.256H33.0141V6.47998L33.0861 3.47398ZM40.3787 0.107981H42.9887L46.8587 14.256H44.8427L43.9607 10.872H39.4247L38.5427 14.256H36.5087L40.3787 0.107981ZM41.6927 2.21398L39.8567 9.21598H43.5287L41.6927 2.21398ZM58.0744 0.215981V14.256H56.0764L50.1904 3.52798L50.2624 6.64198V14.256H48.4804V0.215981H50.4784L56.3644 10.944L56.2924 7.82998V0.215981H58.0744ZM62.1063 7.59598C62.1063 11.16 62.9343 12.816 65.1303 12.816H65.2563C67.1283 12.816 67.8843 11.628 67.8843 9.59398H69.7743V9.77398C69.7743 12.924 68.2443 14.472 65.1303 14.472C61.7643 14.472 60.1803 12.456 60.1803 7.59598V6.87598C60.1803 2.01598 61.7643 -1.95503e-05 65.1303 -1.95503e-05C68.2443 -1.95503e-05 69.7743 1.54798 69.7743 4.85998V5.41798H67.8843C67.8843 2.86198 67.1643 1.65598 65.2563 1.65598H65.1303C62.9523 1.65598 62.1063 3.31198 62.1063 6.87598V7.59598ZM71.8242 0.215981H79.9242V1.87198H73.6962V6.26398H79.0242V7.91998H73.6962V12.6H79.9242V14.256H71.8242V0.215981Z" fill="#121212"/>
</svg>
