<svg width="66" height="15" viewBox="0 0 66 15" fill="none" xmlns="http://www.w3.org/2000/svg">
<path d="M4.46396 7.88398C1.40396 7.46998 0.143963 6.19198 0.143963 4.10398V3.90598C0.143963 1.51198 1.90796 -1.95503e-05 4.76996 -1.95503e-05C7.99196 -1.95503e-05 9.37796 1.58398 9.37796 4.62598V5.05798H7.50596C7.50596 2.68198 6.71396 1.65598 4.78796 1.65598H4.66196C3.13196 1.65598 2.06996 2.48398 2.06996 3.76198V3.90598C2.06996 5.21998 2.71796 5.99398 5.09396 6.31798C8.15396 6.73198 9.52196 7.90198 9.52196 10.206V10.404C9.52196 12.96 7.73996 14.472 4.76996 14.472C1.65596 14.472 -3.7089e-05 12.852 -3.7089e-05 9.77398V9.59398H1.87196C1.87196 11.826 3.00596 12.816 4.69796 12.816H4.84196C6.53396 12.816 7.59596 11.916 7.59596 10.494V10.35C7.59596 8.92798 6.76796 8.18998 4.46396 7.88398ZM13.0919 7.59598C13.0919 11.16 13.9199 12.816 16.1159 12.816H16.2419C18.1139 12.816 18.8699 11.628 18.8699 9.59398H20.7599V9.77398C20.7599 12.924 19.2299 14.472 16.1159 14.472C12.7499 14.472 11.1659 12.456 11.1659 7.59598V6.87598C11.1659 2.01598 12.7499 -1.95503e-05 16.1159 -1.95503e-05C19.2299 -1.95503e-05 20.7599 1.54798 20.7599 4.85998V5.41798H18.8699C18.8699 2.86198 18.1499 1.65598 16.2419 1.65598H16.1159C13.9379 1.65598 13.0919 3.31198 13.0919 6.87598V7.59598ZM30.1718 0.215981H32.0438V14.256H30.1718V7.91998H24.6818V14.256H22.8098V0.215981H24.6818V6.26398H30.1718V0.215981ZM39.1801 14.472C35.7961 14.472 34.1581 12.456 34.1581 7.59598V6.87598C34.1581 2.01598 35.7961 -1.95503e-05 39.1801 -1.95503e-05C42.5461 -1.95503e-05 44.1841 2.01598 44.1841 6.87598V7.59598C44.1841 12.456 42.5461 14.472 39.1801 14.472ZM39.1081 12.816H39.2341C41.3941 12.816 42.2581 11.16 42.2581 7.59598V6.87598C42.2581 3.31198 41.3941 1.65598 39.2341 1.65598H39.1081C36.9481 1.65598 36.0841 3.31198 36.0841 6.87598V7.59598C36.0841 11.16 36.9481 12.816 39.1081 12.816ZM51.0101 14.472C47.6261 14.472 45.9881 12.456 45.9881 7.59598V6.87598C45.9881 2.01598 47.6261 -1.95503e-05 51.0101 -1.95503e-05C54.3761 -1.95503e-05 56.0141 2.01598 56.0141 6.87598V7.59598C56.0141 12.456 54.3761 14.472 51.0101 14.472ZM50.9381 12.816H51.0641C53.2241 12.816 54.0881 11.16 54.0881 7.59598V6.87598C54.0881 3.31198 53.2241 1.65598 51.0641 1.65598H50.9381C48.7781 1.65598 47.9141 3.31198 47.9141 6.87598V7.59598C47.9141 11.16 48.7781 12.816 50.9381 12.816ZM65.6662 14.256H58.1242V0.215981H59.9962V12.6H65.6662V14.256Z" fill="#121212"/>
</svg>
