<svg width="53" height="15" viewBox="0 0 53 15" fill="none" xmlns="http://www.w3.org/2000/svg">
<path d="M4.71603 14.472C1.42203 14.472 3.32519e-05 13.14 3.32519e-05 9.88198V0.215981H1.87203V9.79198C1.87203 12.024 2.73603 12.816 4.71603 12.816C6.67803 12.816 7.54203 12.024 7.54203 9.79198V0.215981H9.41403V9.88198C9.41403 13.14 7.99203 14.472 4.71603 14.472ZM15.7403 7.88398C12.6803 7.46998 11.4203 6.19198 11.4203 4.10398V3.90598C11.4203 1.51198 13.1843 -1.95503e-05 16.0463 -1.95503e-05C19.2683 -1.95503e-05 20.6543 1.58398 20.6543 4.62598V5.05798H18.7823C18.7823 2.68198 17.9903 1.65598 16.0643 1.65598H15.9383C14.4083 1.65598 13.3463 2.48398 13.3463 3.76198V3.90598C13.3463 5.21998 13.9943 5.99398 16.3703 6.31798C19.4303 6.73198 20.7983 7.90198 20.7983 10.206V10.404C20.7983 12.96 19.0163 14.472 16.0463 14.472C12.9323 14.472 11.2763 12.852 11.2763 9.77398V9.59398H13.1483C13.1483 11.826 14.2823 12.816 15.9743 12.816H16.1183C17.8103 12.816 18.8723 11.916 18.8723 10.494V10.35C18.8723 8.92798 18.0443 8.18998 15.7403 7.88398ZM22.7482 0.215981H30.8482V1.87198H24.6202V6.26398H29.9482V7.91998H24.6202V12.6H30.8482V14.256H22.7482V0.215981ZM34.6398 8.78398V14.256H32.7678V0.215981H36.9258C39.0318 0.215981 41.4258 0.91798 41.4258 4.31998V4.67998C41.4258 6.92998 40.3818 7.99198 39.0858 8.45998L41.4258 14.256H39.3918L37.2678 8.78398H34.6398ZM34.6398 7.14598H36.9798C38.0598 7.14598 39.5178 6.74998 39.5178 4.62598V4.39198C39.5178 2.26798 38.0598 1.87198 36.9798 1.87198H34.6398V7.14598ZM47.5216 7.88398C44.4616 7.46998 43.2016 6.19198 43.2016 4.10398V3.90598C43.2016 1.51198 44.9656 -1.95503e-05 47.8276 -1.95503e-05C51.0496 -1.95503e-05 52.4356 1.58398 52.4356 4.62598V5.05798H50.5636C50.5636 2.68198 49.7716 1.65598 47.8456 1.65598H47.7196C46.1896 1.65598 45.1276 2.48398 45.1276 3.76198V3.90598C45.1276 5.21998 45.7756 5.99398 48.1516 6.31798C51.2116 6.73198 52.5796 7.90198 52.5796 10.206V10.404C52.5796 12.96 50.7976 14.472 47.8276 14.472C44.7136 14.472 43.0576 12.852 43.0576 9.77398V9.59398H44.9296C44.9296 11.826 46.0636 12.816 47.7556 12.816H47.8996C49.5916 12.816 50.6536 11.916 50.6536 10.494V10.35C50.6536 8.92798 49.8256 8.18998 47.5216 7.88398Z" fill="#121212"/>
</svg>
