<svg width="153" height="18" viewBox="0 0 153 18" fill="none" xmlns="http://www.w3.org/2000/svg">
<path d="M4.46396 8.748C1.40396 8.334 0.143963 7.05599 0.143963 4.96799V4.76999C0.143963 2.376 1.90796 0.863994 4.76996 0.863994C7.99196 0.863994 9.37796 2.44799 9.37796 5.48999V5.92199H7.50596C7.50596 3.54599 6.71396 2.51999 4.78796 2.51999H4.66196C3.13196 2.51999 2.06996 3.34799 2.06996 4.626V4.76999C2.06996 6.08399 2.71796 6.85799 5.09396 7.18199C8.15396 7.59599 9.52196 8.76599 9.52196 11.07V11.268C9.52196 13.824 7.73996 15.336 4.76996 15.336C1.65596 15.336 -3.7089e-05 13.716 -3.7089e-05 10.638V10.458H1.87196C1.87196 12.69 3.00596 13.68 4.69796 13.68H4.84196C6.53396 13.68 7.59596 12.78 7.59596 11.358V11.214C7.59596 9.792 6.76796 9.05399 4.46396 8.748ZM16.1879 15.336C12.8039 15.336 11.1659 13.32 11.1659 8.46V7.73999C11.1659 2.87999 12.8039 0.863994 16.1879 0.863994C19.5539 0.863994 21.1919 2.87999 21.1919 7.73999V8.46C21.1919 13.32 19.5539 15.336 16.1879 15.336ZM16.1159 13.68H16.2419C18.4019 13.68 19.2659 12.024 19.2659 8.46V7.73999C19.2659 4.17599 18.4019 2.51999 16.2419 2.51999H16.1159C13.9559 2.51999 13.0919 4.17599 13.0919 7.73999V8.46C13.0919 12.024 13.9559 13.68 16.1159 13.68ZM24.9219 8.46C24.9219 12.024 25.7499 13.68 27.9459 13.68H28.0719C29.9439 13.68 30.6999 12.492 30.6999 10.458H32.5899V10.638C32.5899 13.788 31.0599 15.336 27.9459 15.336C24.5799 15.336 22.9959 13.32 22.9959 8.46V7.73999C22.9959 2.87999 24.5799 0.863994 27.9459 0.863994C31.0599 0.863994 32.5899 2.41199 32.5899 5.72399V6.28199H30.6999C30.6999 3.72599 29.9799 2.51999 28.0719 2.51999H27.9459C25.7679 2.51999 24.9219 4.17599 24.9219 7.73999V8.46ZM36.6018 1.07999V15.12H34.7298V1.07999H36.6018ZM42.1827 0.971995H44.7927L48.6627 15.12H46.6467L45.7647 11.736H41.2287L40.3467 15.12H38.3127L42.1827 0.971995ZM43.4967 3.07799L41.6607 10.08H45.3327L43.4967 3.07799ZM57.8264 15.12H50.2844V1.07999H52.1564V13.464H57.8264V15.12ZM67.9095 -5.48363e-06L63.7695 17.28H61.9695L66.1095 -5.48363e-06H67.9095ZM74.8673 9.64799V15.12H72.9953V1.07999H77.1533C79.2593 1.07999 81.6533 1.78199 81.6533 5.18399V5.544C81.6533 7.794 80.6093 8.85599 79.3133 9.32399L81.6533 15.12H79.6193L77.4953 9.64799H74.8673ZM74.8673 8.00999H77.2073C78.2873 8.00999 79.7453 7.61399 79.7453 5.48999V5.25599C79.7453 3.13199 78.2873 2.73599 77.2073 2.73599H74.8673V8.00999ZM83.7531 1.07999H91.8531V2.73599H85.6251V7.12799H90.9531V8.78399H85.6251V13.464H91.8531V15.12H83.7531V1.07999ZM103.367 15.228L100.757 3.16799L98.1467 15.228H95.6807L93.1607 1.07999H95.1227L97.0127 12.78L99.5507 1.07999H101.963L104.501 12.78L106.391 1.07999H108.353L105.833 15.228H103.367ZM112.495 0.971995H115.105L118.975 15.12H116.959L116.077 11.736H111.541L110.659 15.12H108.625L112.495 0.971995ZM113.809 3.07799L111.973 10.08H115.645L113.809 3.07799ZM122.469 9.64799V15.12H120.597V1.07999H124.755C126.861 1.07999 129.255 1.78199 129.255 5.18399V5.544C129.255 7.794 128.211 8.85599 126.915 9.32399L129.255 15.12H127.221L125.097 9.64799H122.469ZM122.469 8.00999H124.809C125.889 8.00999 127.347 7.61399 127.347 5.48999V5.25599C127.347 3.13199 125.889 2.73599 124.809 2.73599H122.469V8.00999ZM140.895 8.46C140.895 13.32 138.987 15.12 135.297 15.12H131.355V1.07999H135.297C138.987 1.07999 140.895 2.87999 140.895 7.73999V8.46ZM133.227 13.464H135.171C137.763 13.464 138.969 12.024 138.969 8.46V7.73999C138.969 4.17599 137.763 2.73599 135.171 2.73599H133.227V13.464ZM147.005 8.748C143.945 8.334 142.685 7.05599 142.685 4.96799V4.76999C142.685 2.376 144.449 0.863994 147.311 0.863994C150.533 0.863994 151.919 2.44799 151.919 5.48999V5.92199H150.047C150.047 3.54599 149.255 2.51999 147.329 2.51999H147.203C145.673 2.51999 144.611 3.34799 144.611 4.626V4.76999C144.611 6.08399 145.259 6.85799 147.635 7.18199C150.695 7.59599 152.063 8.76599 152.063 11.07V11.268C152.063 13.824 150.281 15.336 147.311 15.336C144.197 15.336 142.541 13.716 142.541 10.638V10.458H144.413C144.413 12.69 145.547 13.68 147.239 13.68H147.383C149.075 13.68 150.137 12.78 150.137 11.358V11.214C150.137 9.792 149.309 9.05399 147.005 8.748Z" fill="#121212"/>
</svg>
