<svg width="157" height="18" viewBox="0 0 157 18" fill="none" xmlns="http://www.w3.org/2000/svg">
<path d="M10.6739 4.33799L7.14595 15.12H5.32795L1.79995 4.33799L1.87195 7.34399V15.12H-5.46575e-05V1.07999H2.71795L6.22795 11.88L9.75595 1.07999H12.4739V15.12H10.6019V7.34399L10.6739 4.33799ZM17.9666 0.971995H20.5766L24.4466 15.12H22.4306L21.5486 11.736H17.0126L16.1306 15.12H14.0966L17.9666 0.971995ZM19.2806 3.07799L17.4446 10.08H21.1166L19.2806 3.07799ZM27.9403 9.64799V15.12H26.0683V1.07999H30.2263C32.3323 1.07999 34.7263 1.78199 34.7263 5.18399V5.544C34.7263 8.96399 32.3323 9.64799 30.2263 9.64799H27.9403ZM27.9403 8.00999H30.2803C31.3603 8.00999 32.8183 7.61399 32.8183 5.48999V5.25599C32.8183 3.13199 31.3603 2.73599 30.2803 2.73599H27.9403V8.00999ZM40.4002 8.748C37.3402 8.334 36.0802 7.05599 36.0802 4.96799V4.76999C36.0802 2.376 37.8442 0.863994 40.7062 0.863994C43.9282 0.863994 45.3142 2.44799 45.3142 5.48999V5.92199H43.4422C43.4422 3.54599 42.6502 2.51999 40.7242 2.51999H40.5982C39.0682 2.51999 38.0062 3.34799 38.0062 4.626V4.76999C38.0062 6.08399 38.6542 6.85799 41.0302 7.18199C44.0902 7.59599 45.4582 8.76599 45.4582 11.07V11.268C45.4582 13.824 43.6762 15.336 40.7062 15.336C37.5922 15.336 35.9362 13.716 35.9362 10.638V10.458H37.8082C37.8082 12.69 38.9422 13.68 40.6342 13.68H40.7782C42.4702 13.68 43.5322 12.78 43.5322 11.358V11.214C43.5322 9.792 42.7042 9.05399 40.4002 8.748ZM56.0157 -5.48363e-06L51.8757 17.28H50.0757L54.2157 -5.48363e-06H56.0157ZM70.6955 1.07999V15.12H68.6975L62.8115 4.39199L62.8835 7.50599V15.12H61.1015V1.07999H63.0995L68.9855 11.808L68.9135 8.69399V1.07999H70.6955ZM76.1854 0.971995H78.7954L82.6654 15.12H80.6494L79.7674 11.736H75.2314L74.3494 15.12H72.3154L76.1854 0.971995ZM77.4994 3.07799L75.6634 10.08H79.3354L77.4994 3.07799ZM89.1489 15.228H86.5389L82.6689 1.07999H84.6849L87.8529 13.122L91.0029 1.07999H93.0189L89.1489 15.228ZM96.6026 1.07999V15.12H94.7306V1.07999H96.6026ZM104.073 15.336C100.527 15.336 98.7994 13.32 98.7994 8.46V7.73999C98.7994 2.87999 100.527 0.863994 103.893 0.863994C107.007 0.863994 108.573 2.41199 108.573 5.72399V6.28199H106.683C106.683 3.72599 105.963 2.51999 104.019 2.51999H103.875C101.661 2.51999 100.707 4.17599 100.707 7.73999V8.46C100.707 12.024 101.625 13.68 104.019 13.68H104.163C105.351 13.68 106.215 13.248 106.701 12.798V9.61199H104.487V7.95599H108.573V13.698C107.709 14.526 106.377 15.336 104.073 15.336ZM113.767 0.971995H116.377L120.247 15.12H118.231L117.349 11.736H112.813L111.931 15.12H109.897L113.767 0.971995ZM115.081 3.07799L113.245 10.08H116.917L115.081 3.07799ZM125.437 2.73599V15.12H123.565V2.73599H120.109V1.07999H128.893V2.73599H125.437ZM132.444 1.07999V15.12H130.572V1.07999H132.444ZM139.663 15.336C136.279 15.336 134.641 13.32 134.641 8.46V7.73999C134.641 2.87999 136.279 0.863994 139.663 0.863994C143.029 0.863994 144.667 2.87999 144.667 7.73999V8.46C144.667 13.32 143.029 15.336 139.663 15.336ZM139.591 13.68H139.717C141.877 13.68 142.741 12.024 142.741 8.46V7.73999C142.741 4.17599 141.877 2.51999 139.717 2.51999H139.591C137.431 2.51999 136.567 4.17599 136.567 7.73999V8.46C136.567 12.024 137.431 13.68 139.591 13.68ZM156.371 1.07999V15.12H154.373L148.487 4.39199L148.559 7.50599V15.12H146.777V1.07999H148.775L154.661 11.808L154.589 8.69399V1.07999H156.371Z" fill="#121212"/>
</svg>
