<svg width="172" height="18" viewBox="0 0 172 18" fill="none" xmlns="http://www.w3.org/2000/svg">
<path d="M1.87198 1.08V15.12H-2.04295e-05V1.08H1.87198ZM13.9688 1.08V15.12H11.9708L6.08482 4.392L6.15682 7.506V15.12H4.37482V1.08H6.37282L12.2588 11.808L12.1868 8.694V1.08H13.9688ZM20.8807 2.736V15.12H19.0087V2.736H15.5527V1.08H24.3367V2.736H20.8807ZM25.9256 1.08H34.0256V2.736H27.7976V7.128H33.1256V8.784H27.7976V13.464H34.0256V15.12H25.9256V1.08ZM37.8171 9.648V15.12H35.9451V1.08H40.1031C42.2091 1.08 44.6031 1.782 44.6031 5.184V5.544C44.6031 7.794 43.5591 8.856 42.2631 9.324L44.6031 15.12H42.5691L40.4451 9.648H37.8171ZM37.8171 8.01H40.1571C41.2371 8.01 42.6951 7.614 42.6951 5.49V5.256C42.6951 3.132 41.2371 2.736 40.1571 2.736H37.8171V8.01ZM56.2969 1.08V15.12H54.2989L48.4129 4.392L48.4849 7.506V15.12H46.7029V1.08H48.7009L54.5869 11.808L54.5149 8.694V1.08H56.2969ZM58.7088 1.08H66.8088V2.736H60.5808V7.128H65.9088V8.784H60.5808V13.464H66.8088V15.12H58.7088V1.08ZM73.2283 2.736V15.12H71.3563V2.736H67.9003V1.08H76.6843V2.736H73.2283ZM86.8808 -1.66893e-06L82.7408 17.28H80.9408L85.0808 -1.66893e-06H86.8808ZM101.561 1.08V15.12H99.5626L93.6766 4.392L93.7486 7.506V15.12H91.9666V1.08H93.9646L99.8506 11.808L99.7786 8.694V1.08H101.561ZM103.972 1.08H112.072V2.736H105.844V7.128H111.172V8.784H105.844V13.464H112.072V15.12H103.972V1.08ZM118.492 2.736V15.12H116.62V2.736H113.164V1.08H121.948V2.736H118.492ZM132.92 15.228L130.31 3.168L127.7 15.228H125.234L122.714 1.08H124.676L126.566 12.78L129.104 1.08H131.516L134.054 12.78L135.944 1.08H137.906L135.386 15.228H132.92ZM144.425 15.336C141.041 15.336 139.403 13.32 139.403 8.46V7.74C139.403 2.88 141.041 0.863998 144.425 0.863998C147.791 0.863998 149.429 2.88 149.429 7.74V8.46C149.429 13.32 147.791 15.336 144.425 15.336ZM144.353 13.68H144.479C146.639 13.68 147.503 12.024 147.503 8.46V7.74C147.503 4.176 146.639 2.52 144.479 2.52H144.353C142.193 2.52 141.329 4.176 141.329 7.74V8.46C141.329 12.024 142.193 13.68 144.353 13.68ZM153.411 9.648V15.12H151.539V1.08H155.697C157.803 1.08 160.197 1.782 160.197 5.184V5.544C160.197 7.794 159.153 8.856 157.857 9.324L160.197 15.12H158.163L156.039 9.648H153.411ZM153.411 8.01H155.751C156.831 8.01 158.289 7.614 158.289 5.49V5.256C158.289 3.132 156.831 2.736 155.751 2.736H153.411V8.01ZM164.169 1.08V8.01L168.813 1.08H171.081L166.995 6.894L171.081 15.12H168.993L165.825 8.55L164.169 10.908V15.12H162.297V1.08H164.169Z" fill="#121212"/>
</svg>
