<svg width="176" height="18" viewBox="0 0 176 18" fill="none" xmlns="http://www.w3.org/2000/svg">
<path d="M5.32801 2.73599V15.12H3.45601V2.73599H9.30578e-06V1.07999H8.78401V2.73599H5.32801ZM12.2449 9.64799V15.12H10.3729V1.07999H14.5309C16.6369 1.07999 19.0309 1.78199 19.0309 5.18399V5.544C19.0309 7.794 17.9869 8.85599 16.6909 9.32399L19.0309 15.12H16.9969L14.8729 9.64799H12.2449ZM12.2449 8.00999H14.5849C15.6649 8.00999 17.1229 7.61399 17.1229 5.48999V5.25599C17.1229 3.13199 15.6649 2.73599 14.5849 2.73599H12.2449V8.00999ZM24.033 0.971995H26.643L30.513 15.12H28.497L27.615 11.736H23.079L22.197 15.12H20.163L24.033 0.971995ZM25.347 3.07799L23.511 10.08H27.183L25.347 3.07799ZM36.9965 15.228H34.3865L30.5165 1.07999H32.5325L35.7005 13.122L38.8505 1.07999H40.8665L36.9965 15.228ZM42.4882 1.07999H50.5882V2.73599H44.3602V7.12799H49.6882V8.78399H44.3602V13.464H50.5882V15.12H42.4882V1.07999ZM60.0497 15.12H52.5077V1.07999H54.3797V13.464H60.0497V15.12ZM70.1328 -5.48363e-06L65.9928 17.28H64.1928L68.3328 -5.48363e-06H70.1328ZM84.6017 15.228L81.9917 3.16799L79.3817 15.228H76.9157L74.3957 1.07999H76.3577L78.2477 12.78L80.7857 1.07999H83.1977L85.7357 12.78L87.6257 1.07999H89.5877L87.0677 15.228H84.6017ZM93.7302 0.971995H96.3402L100.21 15.12H98.1942L97.3122 11.736H92.7762L91.8942 15.12H89.8602L93.7302 0.971995ZM95.0442 3.07799L93.2082 10.08H96.8802L95.0442 3.07799ZM106.082 10.854V15.12H104.21V10.854L100.088 1.07999H102.122L105.146 8.53199L108.17 1.07999H110.204L106.082 10.854ZM111.693 1.07999H119.595V2.73599H113.565V7.12799H118.695V8.78399H113.565V15.12H111.693V1.07999ZM123.13 1.07999V15.12H121.258V1.07999H123.13ZM135.227 1.07999V15.12H133.229L127.343 4.39199L127.415 7.50599V15.12H125.633V1.07999H127.631L133.517 11.808L133.445 8.69399V1.07999H135.227ZM147.179 8.46C147.179 13.32 145.271 15.12 141.581 15.12H137.639V1.07999H141.581C145.271 1.07999 147.179 2.87999 147.179 7.73999V8.46ZM139.511 13.464H141.455C144.047 13.464 145.253 12.024 145.253 8.46V7.73999C145.253 4.17599 144.047 2.73599 141.455 2.73599H139.511V13.464ZM151.255 1.07999V15.12H149.383V1.07999H151.255ZM163.352 1.07999V15.12H161.354L155.468 4.39199L155.54 7.50599V15.12H153.758V1.07999H155.756L161.642 11.808L161.57 8.69399V1.07999H163.352ZM170.732 15.336C167.186 15.336 165.458 13.32 165.458 8.46V7.73999C165.458 2.87999 167.186 0.863994 170.552 0.863994C173.666 0.863994 175.232 2.41199 175.232 5.72399V6.28199H173.342C173.342 3.72599 172.622 2.51999 170.678 2.51999H170.534C168.32 2.51999 167.366 4.17599 167.366 7.73999V8.46C167.366 12.024 168.284 13.68 170.678 13.68H170.822C172.01 13.68 172.874 13.248 173.36 12.798V9.61199H171.146V7.95599H175.232V13.698C174.368 14.526 173.036 15.336 170.732 15.336Z" fill="#121212"/>
</svg>
