<svg width="1200" height="630" viewBox="0 0 1200 630" xmlns="http://www.w3.org/2000/svg">
  <defs>
    <style>
      @import url('https://fonts.googleapis.com/css2?family=Press+Start+2P&amp;display=swap');
    </style>
  </defs>

  <!-- Sky blue background -->
  <rect width="1200" height="630" fill="#7EC8E3"/>

  <!-- Subtle clouds -->
  <ellipse cx="180" cy="80" rx="110" ry="40" fill="#fff" opacity="0.3"/>
  <ellipse cx="220" cy="65" rx="75" ry="32" fill="#fff" opacity="0.3"/>
  <ellipse cx="950" cy="55" rx="100" ry="35" fill="#fff" opacity="0.25"/>
  <ellipse cx="1000" cy="42" rx="65" ry="28" fill="#fff" opacity="0.25"/>

  <!-- ====== ARCADE CABINET (left side) ====== -->
  <g transform="translate(80, 50)">
    <!-- Cabinet body shadow -->
    <rect x="8" y="8" width="320" height="530" rx="12" fill="#2D2D2D"/>
    <!-- Cabinet body -->
    <rect x="0" y="0" width="320" height="530" rx="12" fill="#5BA3C9" stroke="#2D2D2D" stroke-width="4"/>

    <!-- Marquee area -->
    <rect x="20" y="16" width="280" height="60" rx="6" fill="#FFD93D" stroke="#2D2D2D" stroke-width="3"/>
    <!-- Marquee text -->
    <text x="160" y="42" font-family="'Press Start 2P', monospace" font-size="14" fill="#2D2D2D" text-anchor="middle" font-weight="bold">FLAG</text>
    <text x="160" y="62" font-family="'Press Start 2P', monospace" font-size="14" fill="#2D2D2D" text-anchor="middle" font-weight="bold">ARCADE</text>

    <!-- Screen bezel -->
    <rect x="30" y="90" width="260" height="220" rx="8" fill="#2D2D2D"/>
    <!-- Screen -->
    <rect x="40" y="100" width="240" height="200" rx="4" fill="#FFF8E7"/>

    <!-- Screen content: flags in a grid -->
    <text x="75" y="150" font-size="36">π‡Ίπ‡Έ</text>
    <text x="140" y="150" font-size="36">π‡§π‡·</text>
    <text x="205" y="150" font-size="36">π‡―π‡µ</text>
    <text x="75" y="200" font-size="36">π‡«π‡·</text>
    <text x="140" y="200" font-size="36">π</text>
    <text x="205" y="200" font-size="36">π‡©π‡</text>
    <text x="75" y="250" font-size="36">π‡¬π‡§</text>
    <text x="140" y="250" font-size="36">π‡¨π‡¦</text>
    <text x="205" y="250" font-size="36">π‡®π‡Ή</text>

    <!-- Score display on screen -->
    <text x="160" y="290" font-family="'Press Start 2P', monospace" font-size="8" fill="#2D2D2D" text-anchor="middle">SCORE: 9999</text>

    <!-- Control panel -->
    <rect x="20" y="325" width="280" height="100" rx="6" fill="#4A93B5" stroke="#2D2D2D" stroke-width="3"/>
    <!-- Joystick base -->
    <circle cx="100" cy="370" r="24" fill="#2D2D2D"/>
    <circle cx="100" cy="370" r="18" fill="#555"/>
    <!-- Joystick stick -->
    <rect x="96" y="345" width="8" height="20" rx="3" fill="#333"/>
    <circle cx="100" cy="344" r="8" fill="#444"/>
    <!-- Buttons -->
    <circle cx="200" cy="355" r="16" fill="#EF4444" stroke="#2D2D2D" stroke-width="2"/>
    <circle cx="240" cy="365" r="16" fill="#3B82F6" stroke="#2D2D2D" stroke-width="2"/>
    <circle cx="200" cy="390" r="14" fill="#16A34A" stroke="#2D2D2D" stroke-width="2"/>
    <circle cx="240" cy="398" r="14" fill="#FFD93D" stroke="#2D2D2D" stroke-width="2"/>

    <!-- Coin area -->
    <rect x="100" y="445" width="120" height="55" rx="4" fill="#2D2D2D"/>
    <rect x="108" y="452" width="104" height="40" rx="3" fill="#1a1a1a"/>
    <!-- Coin slot -->
    <rect x="145" y="460" width="30" height="6" rx="2" fill="#555"/>
    <!-- Coin return -->
    <circle cx="160" cy="480" r="6" fill="#444"/>
    <!-- "INSERT COIN" text -->
    <text x="160" y="498" font-family="'Press Start 2P', monospace" font-size="5" fill="#888" text-anchor="middle">INSERT COIN</text>

    <!-- Cabinet legs -->
    <rect x="30" y="525" width="30" height="20" fill="#4A93B5" stroke="#2D2D2D" stroke-width="2"/>
    <rect x="260" y="525" width="30" height="20" fill="#4A93B5" stroke="#2D2D2D" stroke-width="2"/>
  </g>

  <!-- ====== MAIN TEXT (right side) ====== -->

  <!-- Title: FLAG ARCADE -->
  <!-- Shadow -->
  <text x="754" y="224" font-family="'Press Start 2P', monospace" font-size="72" fill="#2D2D2D" text-anchor="middle">FLAG</text>
  <!-- Main -->
  <text x="750" y="220" font-family="'Press Start 2P', monospace" font-size="72" fill="#2D2D2D" text-anchor="middle" stroke="#2D2D2D" stroke-width="1">FLAG</text>

  <!-- Shadow -->
  <text x="754" y="304" font-family="'Press Start 2P', monospace" font-size="72" fill="#2D2D2D" text-anchor="middle">ARCADE</text>
  <!-- Main -->
  <text x="750" y="300" font-family="'Press Start 2P', monospace" font-size="72" fill="#FFD93D" text-anchor="middle" stroke="#2D2D2D" stroke-width="3" paint-order="stroke">ARCADE</text>

  <!-- Yellow accent bar -->
  <rect x="530" y="325" width="440" height="6" rx="3" fill="#FFD93D" stroke="#2D2D2D" stroke-width="2"/>

  <!-- Subtitle -->
  <text x="750" y="380" font-family="'Press Start 2P', monospace" font-size="18" fill="#2D2D2D" text-anchor="middle">TEST YOUR FLAG</text>
  <text x="750" y="410" font-family="'Press Start 2P', monospace" font-size="18" fill="#2D2D2D" text-anchor="middle">KNOWLEDGE!</text>

  <!-- Game mode tags -->
  <!-- Row 1 -->
  <rect x="548" y="440" width="170" height="36" rx="4" fill="#FFD93D" stroke="#2D2D2D" stroke-width="3"/>
  <text x="633" y="464" font-family="'Press Start 2P', monospace" font-size="11" fill="#2D2D2D" text-anchor="middle">FREE PLAY</text>

  <rect x="734" y="440" width="170" height="36" rx="4" fill="#FFD93D" stroke="#2D2D2D" stroke-width="3"/>
  <text x="819" y="464" font-family="'Press Start 2P', monospace" font-size="11" fill="#2D2D2D" text-anchor="middle">CAMPAIGN</text>

  <!-- Row 2 -->
  <rect x="510" y="490" width="250" height="36" rx="4" fill="#FFD93D" stroke="#2D2D2D" stroke-width="3"/>
  <text x="635" y="514" font-family="'Press Start 2P', monospace" font-size="11" fill="#2D2D2D" text-anchor="middle">AROUND THE WORLD</text>

  <rect x="776" y="490" width="170" height="36" rx="4" fill="#FFD93D" stroke="#2D2D2D" stroke-width="3"/>
  <text x="861" y="514" font-family="'Press Start 2P', monospace" font-size="11" fill="#2D2D2D" text-anchor="middle">JEOPARDY</text>

  <!-- Stars + stats -->
  <text x="635" y="565" font-family="'Press Start 2P', monospace" font-size="16" fill="#D4960A" text-anchor="middle">&#9733;</text>
  <text x="710" y="565" font-family="'Press Start 2P', monospace" font-size="12" fill="#2D2D2D" text-anchor="middle">197 COUNTRIES</text>
  <text x="790" y="565" font-family="'Press Start 2P', monospace" font-size="16" fill="#D4960A" text-anchor="middle">&#9733;</text>
  <text x="860" y="565" font-family="'Press Start 2P', monospace" font-size="12" fill="#2D2D2D" text-anchor="middle">7 CONTINENTS</text>
  <text x="935" y="565" font-family="'Press Start 2P', monospace" font-size="16" fill="#D4960A" text-anchor="middle">&#9733;</text>

  <!-- Scattered flags on right side background -->
  <text x="500" y="100" font-size="40">π‡²π‡½</text>
  <text x="620" y="80" font-size="34">π‡°π‡·</text>
  <text x="780" y="95" font-size="38">π‡¦π‡Ί</text>
  <text x="920" y="75" font-size="42">π‡¨π‡­</text>
  <text x="1060" y="100" font-size="36">π‡®π‡³</text>
  <text x="1100" y="250" font-size="34">π‡³π‡¬</text>
  <text x="1090" y="400" font-size="38">π‡¦π‡·</text>
  <text x="1070" y="540" font-size="36">π‡Ήπ‡·</text>
  <text x="480" y="580" font-size="32">π‡π‡Έ</text>
  <text x="960" y="590" font-size="34">π‡Έπ‡</text>
</svg>
