<svg width="116" height="18" viewBox="0 0 116 18" fill="none" xmlns="http://www.w3.org/2000/svg">
<path d="M1.87201 9.64799V15.12H6.3777e-06V1.07999H4.15801C6.26401 1.07999 8.65801 1.78199 8.65801 5.18399V5.544C8.65801 8.96399 6.26401 9.64799 4.15801 9.64799H1.87201ZM1.87201 8.00999H4.21201C5.29201 8.00999 6.75001 7.61399 6.75001 5.48999V5.25599C6.75001 3.13199 5.29201 2.73599 4.21201 2.73599H1.87201V8.00999ZM10.5469 1.07999H18.6469V2.73599H12.4189V7.12799H17.7469V8.78399H12.4189V13.464H18.6469V15.12H10.5469V1.07999ZM25.0664 2.73599V15.12H23.1944V2.73599H19.7384V1.07999H28.5224V2.73599H25.0664ZM38.7189 -5.48363e-06L34.5789 17.28H32.7789L36.9189 -5.48363e-06H38.7189ZM46.6718 0.971995H49.2818L53.1518 15.12H51.1358L50.2538 11.736H45.7178L44.8358 15.12H42.8018L46.6718 0.971995ZM47.9858 3.07799L46.1498 10.08H49.8218L47.9858 3.07799ZM64.3674 1.07999V15.12H62.3694L56.4834 4.39199L56.5554 7.50599V15.12H54.7734V1.07999H56.7714L62.6574 11.808L62.5854 8.69399V1.07999H64.3674ZM68.7413 1.07999V15.12H66.8693V1.07999H68.7413ZM81.9181 4.33799L78.3901 15.12H76.5721L73.0441 4.33799L73.1161 7.34399V15.12H71.2441V1.07999H73.9621L77.4721 11.88L81.0001 1.07999H83.7181V15.12H81.8461V7.34399L81.9181 4.33799ZM89.2108 0.971995H91.8208L95.6908 15.12H93.6748L92.7928 11.736H88.2568L87.3748 15.12H85.3408L89.2108 0.971995ZM90.5248 3.07799L88.6888 10.08H92.3608L90.5248 3.07799ZM104.855 15.12H97.3125V1.07999H99.1845V13.464H104.855V15.12ZM110.027 8.748C106.967 8.334 105.707 7.05599 105.707 4.96799V4.76999C105.707 2.376 107.471 0.863994 110.333 0.863994C113.555 0.863994 114.941 2.44799 114.941 5.48999V5.92199H113.069C113.069 3.54599 112.277 2.51999 110.351 2.51999H110.225C108.695 2.51999 107.633 3.34799 107.633 4.626V4.76999C107.633 6.08399 108.281 6.85799 110.657 7.18199C113.717 7.59599 115.085 8.76599 115.085 11.07V11.268C115.085 13.824 113.303 15.336 110.333 15.336C107.219 15.336 105.563 13.716 105.563 10.638V10.458H107.435C107.435 12.69 108.569 13.68 110.261 13.68H110.405C112.097 13.68 113.159 12.78 113.159 11.358V11.214C113.159 9.792 112.331 9.05399 110.027 8.748Z" fill="#121212"/>
</svg>
