<svg width="222" height="53" viewBox="0 0 222 53" fill="none" xmlns="http://www.w3.org/2000/svg">
<g clip-path="url(#clip0_2303_1503)">
<g clip-path="url(#clip1_2303_1503)">
<path d="M50 9.53125H47.6094V50H50V9.53125Z" fill="#000001"/>
<path d="M47.6094 7.14062H45.2344V9.53125H47.6094V7.14062Z" fill="#000001"/>
<path d="M45.2344 4.76562H42.8438V7.14063H45.2344V4.76562Z" fill="#000001"/>
<path d="M42.8438 2.375H40.4688V4.76562H42.8438V2.375Z" fill="#000001"/>
<path d="M4.75 0V9.53125H7.14063V11.9062H9.51563V33.3281H7.14063V35.7188H4.75V38.0937H2.375V40.4687H33.3281V50H35.7031V38.0937H38.0937V35.7188H40.4687V33.3281H42.8437V11.9062H40.4687V9.53125H38.0937V2.375H40.4687V0H4.75ZM16.6562 2.375H35.7031V7.14063H16.6562V2.375ZM11.8906 2.375H14.2813V7.14063H11.8906V2.375ZM7.14063 7.14063V2.375H9.51563V7.14063H7.14063ZM14.2813 35.7188H11.8906V38.0937H9.51563V35.7188H11.8906V33.3281H14.2813V35.7188ZM21.4219 35.7188H19.0469V38.0937H16.6562V35.7188H19.0469V33.3281H21.4219V35.7188ZM33.3281 38.0937H26.1875V35.7188H33.3281V38.0937ZM35.7031 30.9531H16.6562V16.6719H35.7031V30.9531ZM38.0937 14.2813H11.8906V11.9062H38.0937V14.2813Z" fill="#000001"/>
<path d="M33.3281 23.8125H30.9375V26.1875H33.3281V23.8125Z" fill="#000001"/>
<path d="M30.9375 19.0469H28.5625V21.4219H30.9375V19.0469Z" fill="#000001"/>
<path d="M30.9375 50V45.2344H23.7969V50H26.1875V47.625H28.5625V50H30.9375Z" fill="#000001"/>
<path d="M30.9375 26.1875H21.4219V28.5781H30.9375V26.1875Z" fill="#000001"/>
<path d="M23.7969 19.0469H21.4219V21.4219H23.7969V19.0469Z" fill="#000001"/>
<path d="M21.4219 23.8125H19.0469V26.1875H21.4219V23.8125Z" fill="#000001"/>
<path d="M2.375 40.4688H0V50H2.375V40.4688Z" fill="#000001"/>
</g>
<path d="M60 28.625V5H83.625V8.375H66.75V15.125H80.25V18.5H66.75V28.625H60ZM90.375 28.625V5H97.125V25.25H110.625V28.625H90.375ZM114 28.625V11.75H117.375V8.375H120.75V5H130.875V8.375H134.25V11.75H137.625V28.625H130.875V21.875H120.75V28.625H114ZM120.75 18.5H130.875V11.75H127.5V8.375H124.125V11.75H120.75V18.5ZM147.75 28.625V25.25H144.375V21.875H141V11.75H144.375V8.375H147.75V5H164.625V8.375H151.125V11.75H147.75V21.875H151.125V25.25H157.875V18.5H154.5V15.125H164.625V28.625H147.75ZM60 49.75V38.5H62.25V36.25H64.5V34H71.25V36.25H73.5V38.5H75.75V49.75H71.25V45.25H64.5V49.75H60ZM64.5 43H71.25V38.5H69V36.25H66.75V38.5H64.5V43ZM78 49.75V34H91.5V36.25H93.75V43H89.25V45.25H91.5V47.5H93.75V49.75H87V47.5H84.75V45.25H82.5V49.75H78ZM82.5 43H87V40.75H89.25V36.25H82.5V43ZM100.5 49.75V47.5H98.25V45.25H96V38.5H98.25V36.25H100.5V34H109.5V36.25H111.75V38.5H107.25V36.25H102.75V38.5H100.5V45.25H102.75V47.5H107.25V45.25H111.75V47.5H109.5V49.75H100.5ZM114 49.75V38.5H116.25V36.25H118.5V34H125.25V36.25H127.5V38.5H129.75V49.75H125.25V45.25H118.5V49.75H114ZM118.5 43H125.25V38.5H123V36.25H120.75V38.5H118.5V43ZM132 49.75V34H143.25V36.25H145.5V38.5H147.75V45.25H145.5V47.5H143.25V49.75H132ZM136.5 47.5H141V45.25H143.25V38.5H141V36.25H136.5V47.5ZM150 49.75V34H165.75V36.25H154.5V40.75H163.5V43H154.5V47.5H165.75V49.75H150Z" fill="black"/>
<path d="M219.665 19.6659H217.337V40.6593H219.665V19.6659Z" fill="#000001"/>
<path d="M177.663 50H180.005V38.3319H191.674V40.6594H194.001V43.0022H217.337V40.6594H198.671V38.3319H200.999V19.6659H217.337V17.3231H198.671V14.9956H196.329V35.9891H180.005V14.9956H196.329V12.6681H180.005V10.3253H182.333V7.9978H177.663V50Z" fill="#000001"/>
<path d="M184.676 3.32751H182.333V7.99783H184.676V3.32751Z" fill="#000001"/>
<path d="M182.333 1H177.663V3.3275H182.333V1Z" fill="#000001"/>
<path d="M177.663 3.32751H175.335V7.99783H177.663V3.32751Z" fill="#000001"/>
</g>
<defs>
<clipPath id="clip0_2303_1503">
<rect width="222" height="53" fill="white"/>
</clipPath>
<clipPath id="clip1_2303_1503">
<rect width="50" height="50" fill="white"/>
</clipPath>
</defs>
</svg>
