<svg width="99" height="15" viewBox="0 0 99 15" fill="none" xmlns="http://www.w3.org/2000/svg">
<path d="M7.36195 0.215981H9.23395V14.256H7.36195V7.91998H1.87195V14.256H-5.46575e-05V0.215981H1.87195V6.26398H7.36195V0.215981ZM14.7322 0.107981H17.3422L21.2122 14.256H19.1962L18.3142 10.872H13.7782L12.8962 14.256H10.8622L14.7322 0.107981ZM16.0462 2.21398L14.2102 9.21598H17.8822L16.0462 2.21398ZM32.4279 0.215981V14.256H30.4299L24.5439 3.52798L24.6159 6.64198V14.256H22.8339V0.215981H24.8319L30.7179 10.944L30.6459 7.82998V0.215981H32.4279ZM44.3798 7.59598C44.3798 12.456 42.4718 14.256 38.7818 14.256H34.8398V0.215981H38.7818C42.4718 0.215981 44.3798 2.01598 44.3798 6.87598V7.59598ZM36.7118 12.6H38.6558C41.2478 12.6 42.4538 11.16 42.4538 7.59598V6.87598C42.4538 3.31198 41.2478 1.87198 38.6558 1.87198H36.7118V12.6ZM54.0936 7.88398C51.0336 7.46998 49.7736 6.19198 49.7736 4.10398V3.90598C49.7736 1.51198 51.5376 -1.95503e-05 54.3996 -1.95503e-05C57.6216 -1.95503e-05 59.0076 1.58398 59.0076 4.62598V5.05798H57.1356C57.1356 2.68198 56.3436 1.65598 54.4176 1.65598H54.2916C52.7616 1.65598 51.6996 2.48398 51.6996 3.76198V3.90598C51.6996 5.21998 52.3476 5.99398 54.7236 6.31798C57.7836 6.73198 59.1516 7.90198 59.1516 10.206V10.404C59.1516 12.96 57.3696 14.472 54.3996 14.472C51.2856 14.472 49.6296 12.852 49.6296 9.77398V9.59398H51.5016C51.5016 11.826 52.6356 12.816 54.3276 12.816H54.4716C56.1636 12.816 57.2256 11.916 57.2256 10.494V10.35C57.2256 8.92798 56.3976 8.18998 54.0936 7.88398ZM63.0635 0.215981V14.256H61.1915V0.215981H63.0635ZM70.5344 14.472C66.9884 14.472 65.2604 12.456 65.2604 7.59598V6.87598C65.2604 2.01598 66.9884 -1.95503e-05 70.3544 -1.95503e-05C73.4684 -1.95503e-05 75.0344 1.54798 75.0344 4.85998V5.41798H73.1444C73.1444 2.86198 72.4244 1.65598 70.4804 1.65598H70.3364C68.1224 1.65598 67.1684 3.31198 67.1684 6.87598V7.59598C67.1684 11.16 68.0864 12.816 70.4804 12.816H70.6244C71.8124 12.816 72.6764 12.384 73.1624 11.934V8.74798H70.9484V7.09198H75.0344V12.834C74.1704 13.662 72.8384 14.472 70.5344 14.472ZM86.9553 0.215981V14.256H84.9573L79.0713 3.52798L79.1433 6.64198V14.256H77.3613V0.215981H79.3593L85.2453 10.944L85.1733 7.82998V0.215981H86.9553ZM93.3631 7.88398C90.3031 7.46998 89.0431 6.19198 89.0431 4.10398V3.90598C89.0431 1.51198 90.8071 -1.95503e-05 93.6691 -1.95503e-05C96.8911 -1.95503e-05 98.2771 1.58398 98.2771 4.62598V5.05798H96.4051C96.4051 2.68198 95.6131 1.65598 93.6871 1.65598H93.5611C92.0311 1.65598 90.9691 2.48398 90.9691 3.76198V3.90598C90.9691 5.21998 91.6171 5.99398 93.9931 6.31798C97.0531 6.73198 98.4211 7.90198 98.4211 10.206V10.404C98.4211 12.96 96.6391 14.472 93.6691 14.472C90.5551 14.472 88.8991 12.852 88.8991 9.77398V9.59398H90.7711C90.7711 11.826 91.9051 12.816 93.5971 12.816H93.7411C95.4331 12.816 96.4951 11.916 96.4951 10.494V10.35C96.4951 8.92798 95.6671 8.18998 93.3631 7.88398Z" fill="#121212"/>
</svg>
