<svg width="54" height="15" viewBox="0 0 54 15" fill="none" xmlns="http://www.w3.org/2000/svg">
<path d="M7.54195 14.256H-5.46575e-05V0.215996H1.87195V12.6H7.54195V14.256ZM13.4347 14.472C10.0507 14.472 8.4127 12.456 8.4127 7.596V6.876C8.4127 2.016 10.0507 -4.29153e-06 13.4347 -4.29153e-06C16.8007 -4.29153e-06 18.4387 2.016 18.4387 6.876V7.596C18.4387 12.456 16.8007 14.472 13.4347 14.472ZM13.3627 12.816H13.4887C15.6487 12.816 16.5127 11.16 16.5127 7.596V6.876C16.5127 3.312 15.6487 1.656 13.4887 1.656H13.3627C11.2027 1.656 10.3387 3.312 10.3387 6.876V7.596C10.3387 11.16 11.2027 12.816 13.3627 12.816ZM25.5168 14.472C21.9708 14.472 20.2428 12.456 20.2428 7.596V6.876C20.2428 2.016 21.9708 -4.29153e-06 25.3368 -4.29153e-06C28.4508 -4.29153e-06 30.0168 1.548 30.0168 4.86V5.418H28.1268C28.1268 2.862 27.4068 1.656 25.4628 1.656H25.3188C23.1048 1.656 22.1508 3.312 22.1508 6.876V7.596C22.1508 11.16 23.0688 12.816 25.4628 12.816H25.6068C26.7948 12.816 27.6588 12.384 28.1448 11.934V8.748H25.9308V7.092H30.0168V12.834C29.1528 13.662 27.8208 14.472 25.5168 14.472ZM37.0597 14.472C33.6757 14.472 32.0377 12.456 32.0377 7.596V6.876C32.0377 2.016 33.6757 -4.29153e-06 37.0597 -4.29153e-06C40.4257 -4.29153e-06 42.0637 2.016 42.0637 6.876V7.596C42.0637 12.456 40.4257 14.472 37.0597 14.472ZM36.9877 12.816H37.1137C39.2737 12.816 40.1377 11.16 40.1377 7.596V6.876C40.1377 3.312 39.2737 1.656 37.1137 1.656H36.9877C34.8277 1.656 33.9637 3.312 33.9637 6.876V7.596C33.9637 11.16 34.8277 12.816 36.9877 12.816ZM48.1698 7.884C45.1098 7.47 43.8498 6.192 43.8498 4.104V3.906C43.8498 1.512 45.6138 -4.29153e-06 48.4758 -4.29153e-06C51.6978 -4.29153e-06 53.0838 1.584 53.0838 4.626V5.058H51.2118C51.2118 2.682 50.4198 1.656 48.4938 1.656H48.3678C46.8378 1.656 45.7758 2.484 45.7758 3.762V3.906C45.7758 5.22 46.4238 5.994 48.7998 6.318C51.8598 6.732 53.2278 7.902 53.2278 10.206V10.404C53.2278 12.96 51.4458 14.472 48.4758 14.472C45.3618 14.472 43.7058 12.852 43.7058 9.774V9.594H45.5778C45.5778 11.826 46.7118 12.816 48.4038 12.816H48.5478C50.2398 12.816 51.3018 11.916 51.3018 10.494V10.35C51.3018 8.928 50.4738 8.19 48.1698 7.884Z" fill="#121212"/>
</svg>
