<svg width="55" height="15" viewBox="0 0 55 15" fill="none" xmlns="http://www.w3.org/2000/svg">
<path d="M1.87195 8.78398V14.256H-5.46575e-05V0.215981H4.15795C6.26395 0.215981 8.65795 0.91798 8.65795 4.31998V4.67998C8.65795 8.09998 6.26395 8.78398 4.15795 8.78398H1.87195ZM1.87195 7.14598H4.21195C5.29195 7.14598 6.74995 6.74998 6.74995 4.62598V4.39198C6.74995 2.26798 5.29195 1.87198 4.21195 1.87198H1.87195V7.14598ZM17.9088 0.215981H19.7808V14.256H17.9088V7.91998H12.4188V14.256H10.5468V0.215981H12.4188V6.26398H17.9088V0.215981ZM26.9171 14.472C23.5331 14.472 21.8951 12.456 21.8951 7.59598V6.87598C21.8951 2.01598 23.5331 -1.95503e-05 26.9171 -1.95503e-05C30.2831 -1.95503e-05 31.9211 2.01598 31.9211 6.87598V7.59598C31.9211 12.456 30.2831 14.472 26.9171 14.472ZM26.8451 12.816H26.9711C29.1311 12.816 29.9951 11.16 29.9951 7.59598V6.87598C29.9951 3.31198 29.1311 1.65598 26.9711 1.65598H26.8451C24.6851 1.65598 23.8211 3.31198 23.8211 6.87598V7.59598C23.8211 11.16 24.6851 12.816 26.8451 12.816ZM43.6252 0.215981V14.256H41.6272L35.7412 3.52798L35.8132 6.64198V14.256H34.0312V0.215981H36.0292L41.9152 10.944L41.8432 7.82998V0.215981H43.6252ZM46.0371 0.215981H54.1371V1.87198H47.9091V6.26398H53.2371V7.91998H47.9091V12.6H54.1371V14.256H46.0371V0.215981Z" fill="#121212"/>
</svg>
