<svg width="120" height="15" viewBox="0 0 120 15" fill="none" xmlns="http://www.w3.org/2000/svg">
<path d="M1.87195 8.78398V14.256H-5.46575e-05V0.215981H4.15795C6.26395 0.215981 8.65795 0.91798 8.65795 4.31998V4.67998C8.65795 8.09998 6.26395 8.78398 4.15795 8.78398H1.87195ZM1.87195 7.14598H4.21195C5.29195 7.14598 6.74995 6.74998 6.74995 4.62598V4.39198C6.74995 2.26798 5.29195 1.87198 4.21195 1.87198H1.87195V7.14598ZM17.9088 0.215981H19.7808V14.256H17.9088V7.91998H12.4188V14.256H10.5468V0.215981H12.4188V6.26398H17.9088V0.215981ZM26.9171 14.472C23.5331 14.472 21.8951 12.456 21.8951 7.59598V6.87598C21.8951 2.01598 23.5331 -1.95503e-05 26.9171 -1.95503e-05C30.2831 -1.95503e-05 31.9211 2.01598 31.9211 6.87598V7.59598C31.9211 12.456 30.2831 14.472 26.9171 14.472ZM26.8451 12.816H26.9711C29.1311 12.816 29.9951 11.16 29.9951 7.59598V6.87598C29.9951 3.31198 29.1311 1.65598 26.9711 1.65598H26.8451C24.6851 1.65598 23.8211 3.31198 23.8211 6.87598V7.59598C23.8211 11.16 24.6851 12.816 26.8451 12.816ZM38.0566 1.87198V14.256H36.1846V1.87198H32.7286V0.215981H41.5126V1.87198H38.0566ZM47.5187 14.472C44.1347 14.472 42.4967 12.456 42.4967 7.59598V6.87598C42.4967 2.01598 44.1347 -1.95503e-05 47.5187 -1.95503e-05C50.8847 -1.95503e-05 52.5227 2.01598 52.5227 6.87598V7.59598C52.5227 12.456 50.8847 14.472 47.5187 14.472ZM47.4467 12.816H47.5727C49.7327 12.816 50.5967 11.16 50.5967 7.59598V6.87598C50.5967 3.31198 49.7327 1.65598 47.5727 1.65598H47.4467C45.2867 1.65598 44.4227 3.31198 44.4227 6.87598V7.59598C44.4227 11.16 45.2867 12.816 47.4467 12.816ZM59.6008 14.472C56.0548 14.472 54.3268 12.456 54.3268 7.59598V6.87598C54.3268 2.01598 56.0548 -1.95503e-05 59.4208 -1.95503e-05C62.5348 -1.95503e-05 64.1008 1.54798 64.1008 4.85998V5.41798H62.2108C62.2108 2.86198 61.4908 1.65598 59.5468 1.65598H59.4028C57.1888 1.65598 56.2348 3.31198 56.2348 6.87598V7.59598C56.2348 11.16 57.1528 12.816 59.5468 12.816H59.6908C60.8788 12.816 61.7428 12.384 62.2288 11.934V8.74798H60.0148V7.09198H64.1008V12.834C63.2368 13.662 61.9048 14.472 59.6008 14.472ZM68.2997 8.78398V14.256H66.4277V0.215981H70.5857C72.6917 0.215981 75.0857 0.91798 75.0857 4.31998V4.67998C75.0857 6.92998 74.0417 7.99198 72.7457 8.45998L75.0857 14.256H73.0517L70.9277 8.78398H68.2997ZM68.2997 7.14598H70.6397C71.7197 7.14598 73.1777 6.74998 73.1777 4.62598V4.39198C73.1777 2.26798 71.7197 1.87198 70.6397 1.87198H68.2997V7.14598ZM80.0877 0.107981H82.6977L86.5677 14.256H84.5517L83.6697 10.872H79.1337L78.2517 14.256H76.2177L80.0877 0.107981ZM81.4017 2.21398L79.5657 9.21598H83.2377L81.4017 2.21398ZM90.0614 8.78398V14.256H88.1894V0.215981H92.3474C94.4534 0.215981 96.8474 0.91798 96.8474 4.31998V4.67998C96.8474 8.09998 94.4534 8.78398 92.3474 8.78398H90.0614ZM90.0614 7.14598H92.4014C93.4814 7.14598 94.9394 6.74998 94.9394 4.62598V4.39198C94.9394 2.26798 93.4814 1.87198 92.4014 1.87198H90.0614V7.14598ZM106.098 0.215981H107.97V14.256H106.098V7.91998H100.608V14.256H98.7363V0.215981H100.608V6.26398H106.098V0.215981ZM115.467 9.98998V14.256H113.595V9.98998L109.473 0.215981H111.507L114.531 7.66798L117.555 0.215981H119.589L115.467 9.98998Z" fill="#121212"/>
</svg>
