<svg width="109" height="15" viewBox="0 0 109 15" fill="none" xmlns="http://www.w3.org/2000/svg">
<path d="M5.32795 1.87198V14.256H3.45595V1.87198H-5.17294e-05V0.215981H8.78395V1.87198H5.32795ZM10.3729 0.215981H18.4729V1.87198H12.2449V6.26398H17.5729V7.91998H12.2449V12.6H18.4729V14.256H10.3729V0.215981ZM22.0124 7.59598C22.0124 11.16 22.8404 12.816 25.0364 12.816H25.1624C27.0344 12.816 27.7904 11.628 27.7904 9.59398H29.6804V9.77398C29.6804 12.924 28.1504 14.472 25.0364 14.472C21.6704 14.472 20.0864 12.456 20.0864 7.59598V6.87598C20.0864 2.01598 21.6704 -1.95503e-05 25.0364 -1.95503e-05C28.1504 -1.95503e-05 29.6804 1.54798 29.6804 4.85998V5.41798H27.7904C27.7904 2.86198 27.0704 1.65598 25.1624 1.65598H25.0364C22.8584 1.65598 22.0124 3.31198 22.0124 6.87598V7.59598ZM39.0923 0.215981H40.9643V14.256H39.0923V7.91998H33.6023V14.256H31.7303V0.215981H33.6023V6.26398H39.0923V0.215981ZM52.9786 0.215981V14.256H50.9806L45.0946 3.52798L45.1666 6.64198V14.256H43.3846V0.215981H45.3826L51.2686 10.944L51.1966 7.82998V0.215981H52.9786ZM60.1064 14.472C56.7224 14.472 55.0844 12.456 55.0844 7.59598V6.87598C55.0844 2.01598 56.7224 -1.95503e-05 60.1064 -1.95503e-05C63.4724 -1.95503e-05 65.1104 2.01598 65.1104 6.87598V7.59598C65.1104 12.456 63.4724 14.472 60.1064 14.472ZM60.0344 12.816H60.1604C62.3204 12.816 63.1844 11.16 63.1844 7.59598V6.87598C63.1844 3.31198 62.3204 1.65598 60.1604 1.65598H60.0344C57.8744 1.65598 57.0104 3.31198 57.0104 6.87598V7.59598C57.0104 11.16 57.8744 12.816 60.0344 12.816ZM74.7625 14.256H67.2205V0.215981H69.0925V12.6H74.7625V14.256ZM80.6553 14.472C77.2713 14.472 75.6333 12.456 75.6333 7.59598V6.87598C75.6333 2.01598 77.2713 -1.95503e-05 80.6553 -1.95503e-05C84.0213 -1.95503e-05 85.6593 2.01598 85.6593 6.87598V7.59598C85.6593 12.456 84.0213 14.472 80.6553 14.472ZM80.5833 12.816H80.7093C82.8693 12.816 83.7333 11.16 83.7333 7.59598V6.87598C83.7333 3.31198 82.8693 1.65598 80.7093 1.65598H80.5833C78.4233 1.65598 77.5593 3.31198 77.5593 6.87598V7.59598C77.5593 11.16 78.4233 12.816 80.5833 12.816ZM92.7374 14.472C89.1914 14.472 87.4634 12.456 87.4634 7.59598V6.87598C87.4634 2.01598 89.1914 -1.95503e-05 92.5574 -1.95503e-05C95.6714 -1.95503e-05 97.2374 1.54798 97.2374 4.85998V5.41798H95.3474C95.3474 2.86198 94.6274 1.65598 92.6834 1.65598H92.5394C90.3254 1.65598 89.3714 3.31198 89.3714 6.87598V7.59598C89.3714 11.16 90.2894 12.816 92.6834 12.816H92.8274C94.0154 12.816 94.8794 12.384 95.3654 11.934V8.74798H93.1514V7.09198H97.2374V12.834C96.3734 13.662 95.0414 14.472 92.7374 14.472ZM104.429 9.98998V14.256H102.557V9.98998L98.4353 0.215981H100.469L103.493 7.66798L106.517 0.215981H108.551L104.429 9.98998Z" fill="#121212"/>
</svg>
