<svg width="78" height="15" viewBox="0 0 78 15" fill="none" xmlns="http://www.w3.org/2000/svg">
<path d="M10.206 14.2559L7.59601 2.19595L4.98601 14.2559H2.52001L5.85616e-06 0.107949H1.96201L3.85201 11.8079L6.39001 0.107949H8.80201L11.34 11.8079L13.23 0.107949H15.192L12.672 14.2559H10.206ZM16.9948 0.107949H25.0948V1.76395H18.8668V6.15595H24.1948V7.81195H18.8668V12.4919H25.0948V14.1479H16.9948V0.107949ZM30.0923 -5.10216e-05H32.7023L36.5724 14.1479H34.5564L33.6743 10.7639H29.1383L28.2563 14.1479H26.2223L30.0923 -5.10216e-05ZM31.4063 2.10595L29.5703 9.10795H33.2423L31.4063 2.10595ZM41.7624 1.76395V14.1479H39.8904V1.76395H36.4344V0.107949H45.2184V1.76395H41.7624ZM54.1693 0.107949H56.0413V14.1479H54.1693V7.81195H48.6793V14.1479H46.8073V0.107949H48.6793V6.15595H54.1693V0.107949ZM58.4616 0.107949H66.5616V1.76395H60.3336V6.15595H65.6616V7.81195H60.3336V12.4919H66.5616V14.1479H58.4616V0.107949ZM70.3531 8.67595V14.1479H68.4811V0.107949H72.6391C74.7451 0.107949 77.1391 0.809948 77.1391 4.21195V4.57195C77.1391 6.82195 76.0951 7.88395 74.7991 8.35195L77.1391 14.1479H75.1051L72.9811 8.67595H70.3531ZM70.3531 7.03795H72.6931C73.7731 7.03795 75.2311 6.64195 75.2311 4.51795V4.28395C75.2311 2.15995 73.7731 1.76395 72.6931 1.76395H70.3531V7.03795Z" fill="#121212"/>
</svg>
