<svg width="160" height="18" viewBox="0 0 160 18" fill="none" xmlns="http://www.w3.org/2000/svg">
<path d="M10.674 4.338L7.14601 15.12H5.32801L1.80001 4.338L1.87201 7.344V15.12H6.3777e-06V1.08H2.71801L6.22801 11.88L9.75601 1.08H12.474V15.12H10.602V7.344L10.674 4.338ZM19.6047 15.336C16.2207 15.336 14.5827 13.32 14.5827 8.46V7.74C14.5827 2.88 16.2207 0.864002 19.6047 0.864002C22.9707 0.864002 24.6087 2.88 24.6087 7.74V8.46C24.6087 13.32 22.9707 15.336 19.6047 15.336ZM19.5327 13.68H19.6587C21.8187 13.68 22.6827 12.024 22.6827 8.46V7.74C22.6827 4.176 21.8187 2.52 19.6587 2.52H19.5327C17.3727 2.52 16.5087 4.176 16.5087 7.74V8.46C16.5087 12.024 17.3727 13.68 19.5327 13.68ZM36.3128 1.08V15.12H34.3148L28.4288 4.392L28.5008 7.506V15.12H26.7188V1.08H28.7168L34.6028 11.808L34.5308 8.694V1.08H36.3128ZM38.7246 1.08H46.8246V2.736H40.5966V7.128H45.9246V8.784H40.5966V13.464H46.8246V15.12H38.7246V1.08ZM53.8201 10.854V15.12H51.9481V10.854L47.8261 1.08H49.8601L52.8841 8.532L55.9081 1.08H57.9421L53.8201 10.854ZM68.0392 2.14577e-06L63.8992 17.28H62.0992L66.2392 2.14577e-06H68.0392ZM74.997 9.648V15.12H73.125V1.08H77.283C79.389 1.08 81.783 1.782 81.783 5.184V5.544C81.783 8.964 79.389 9.648 77.283 9.648H74.997ZM74.997 8.01H77.337C78.417 8.01 79.875 7.614 79.875 5.49V5.256C79.875 3.132 78.417 2.736 77.337 2.736H74.997V8.01ZM86.328 0.972003H88.938L92.808 15.12H90.792L89.91 11.736H85.374L84.492 15.12H82.458L86.328 0.972003ZM87.642 3.078L85.806 10.08H89.478L87.642 3.078ZM98.6795 10.854V15.12H96.8075V10.854L92.6855 1.08H94.7195L97.7435 8.532L100.768 1.08H102.802L98.6795 10.854ZM114.965 4.338L111.437 15.12H109.619L106.091 4.338L106.163 7.344V15.12H104.291V1.08H107.009L110.519 11.88L114.047 1.08H116.765V15.12H114.893V7.344L114.965 4.338ZM119.18 1.08H127.28V2.736H121.052V7.128H126.38V8.784H121.052V13.464H127.28V15.12H119.18V1.08ZM138.793 1.08V15.12H136.795L130.909 4.392L130.981 7.506V15.12H129.199V1.08H131.197L137.083 11.808L137.011 8.694V1.08H138.793ZM145.705 2.736V15.12H143.833V2.736H140.377V1.08H149.161V2.736H145.705ZM154.447 8.748C151.387 8.334 150.127 7.056 150.127 4.968V4.77C150.127 2.376 151.891 0.864002 154.753 0.864002C157.975 0.864002 159.361 2.448 159.361 5.49V5.922H157.489C157.489 3.546 156.697 2.52 154.771 2.52H154.645C153.115 2.52 152.053 3.348 152.053 4.626V4.77C152.053 6.084 152.701 6.858 155.077 7.182C158.137 7.596 159.505 8.766 159.505 11.07V11.268C159.505 13.824 157.723 15.336 154.753 15.336C151.639 15.336 149.983 13.716 149.983 10.638V10.458H151.855C151.855 12.69 152.989 13.68 154.681 13.68H154.825C156.517 13.68 157.579 12.78 157.579 11.358V11.214C157.579 9.792 156.751 9.054 154.447 8.748Z" fill="#121212"/>
</svg>
