<svg width="173" height="18" viewBox="0 0 173 18" fill="none" xmlns="http://www.w3.org/2000/svg">
<path d="M4.46402 8.748C1.40402 8.334 0.144024 7.05599 0.144024 4.96799V4.76999C0.144024 2.376 1.90802 0.863994 4.77002 0.863994C7.99202 0.863994 9.37802 2.44799 9.37802 5.48999V5.92199H7.50602C7.50602 3.54599 6.71402 2.51999 4.78802 2.51999H4.66202C3.13202 2.51999 2.07002 3.34799 2.07002 4.626V4.76999C2.07002 6.08399 2.71802 6.85799 5.09402 7.18199C8.15402 7.59599 9.52202 8.76599 9.52202 11.07V11.268C9.52202 13.824 7.74002 15.336 4.77002 15.336C1.65602 15.336 2.39462e-05 13.716 2.39462e-05 10.638V10.458H1.87202C1.87202 12.69 3.00602 13.68 4.69802 13.68H4.84202C6.53402 13.68 7.59602 12.78 7.59602 11.358V11.214C7.59602 9.792 6.76802 9.05399 4.46402 8.748ZM18.8339 1.07999H20.7059V15.12H18.8339V8.78399H13.3439V15.12H11.4719V1.07999H13.3439V7.12799H18.8339V1.07999ZM27.8422 15.336C24.4582 15.336 22.8202 13.32 22.8202 8.46V7.73999C22.8202 2.87999 24.4582 0.863994 27.8422 0.863994C31.2082 0.863994 32.8462 2.87999 32.8462 7.73999V8.46C32.8462 13.32 31.2082 15.336 27.8422 15.336ZM27.7702 13.68H27.8962C30.0562 13.68 30.9202 12.024 30.9202 8.46V7.73999C30.9202 4.17599 30.0562 2.51999 27.8962 2.51999H27.7702C25.6102 2.51999 24.7462 4.17599 24.7462 7.73999V8.46C24.7462 12.024 25.6102 13.68 27.7702 13.68ZM36.8283 9.64799V15.12H34.9563V1.07999H39.1143C41.2203 1.07999 43.6143 1.78199 43.6143 5.18399V5.544C43.6143 8.96399 41.2203 9.64799 39.1143 9.64799H36.8283ZM36.8283 8.00999H39.1683C40.2483 8.00999 41.7063 7.61399 41.7063 5.48999V5.25599C41.7063 3.13199 40.2483 2.73599 39.1683 2.73599H36.8283V8.00999ZM47.3752 9.64799V15.12H45.5032V1.07999H49.6612C51.7672 1.07999 54.1612 1.78199 54.1612 5.18399V5.544C54.1612 8.96399 51.7672 9.64799 49.6612 9.64799H47.3752ZM47.3752 8.00999H49.7152C50.7952 8.00999 52.2532 7.61399 52.2532 5.48999V5.25599C52.2532 3.13199 50.7952 2.73599 49.7152 2.73599H47.3752V8.00999ZM58.0121 1.07999V15.12H56.1401V1.07999H58.0121ZM70.1089 1.07999V15.12H68.1109L62.2249 4.39199L62.2969 7.50599V15.12H60.5149V1.07999H62.5129L68.3989 11.808L68.3269 8.69399V1.07999H70.1089ZM77.4888 15.336C73.9428 15.336 72.2148 13.32 72.2148 8.46V7.73999C72.2148 2.87999 73.9428 0.863994 77.3088 0.863994C80.4228 0.863994 81.9888 2.41199 81.9888 5.72399V6.28199H80.0988C80.0988 3.72599 79.3788 2.51999 77.4348 2.51999H77.2908C75.0768 2.51999 74.1228 4.17599 74.1228 7.73999V8.46C74.1228 12.024 75.0408 13.68 77.4348 13.68H77.5788C78.7668 13.68 79.6308 13.248 80.1168 12.798V9.61199H77.9028V7.95599H81.9888V13.698C81.1248 14.526 79.7928 15.336 77.4888 15.336ZM92.9232 -5.48363e-06L88.7832 17.28H86.9832L91.1232 -5.48363e-06H92.9232ZM102.005 8.748C98.945 8.334 97.685 7.05599 97.685 4.96799V4.76999C97.685 2.376 99.449 0.863994 102.311 0.863994C105.533 0.863994 106.919 2.44799 106.919 5.48999V5.92199H105.047C105.047 3.54599 104.255 2.51999 102.329 2.51999H102.203C100.673 2.51999 99.611 3.34799 99.611 4.626V4.76999C99.611 6.08399 100.259 6.85799 102.635 7.18199C105.695 7.59599 107.063 8.76599 107.063 11.07V11.268C107.063 13.824 105.281 15.336 102.311 15.336C99.197 15.336 97.541 13.716 97.541 10.638V10.458H99.413C99.413 12.69 100.547 13.68 102.239 13.68H102.383C104.075 13.68 105.137 12.78 105.137 11.358V11.214C105.137 9.792 104.309 9.05399 102.005 8.748ZM116.375 1.07999H118.247V15.12H116.375V8.78399H110.885V15.12H109.013V1.07999H110.885V7.12799H116.375V1.07999ZM122.629 1.07999V15.12H120.757V1.07999H122.629ZM127.004 9.64799V15.12H125.132V1.07999H129.29C131.396 1.07999 133.79 1.78199 133.79 5.18399V5.544C133.79 8.96399 131.396 9.64799 129.29 9.64799H127.004ZM127.004 8.00999H129.344C130.424 8.00999 131.882 7.61399 131.882 5.48999V5.25599C131.882 3.13199 130.424 2.73599 129.344 2.73599H127.004V8.00999ZM137.551 9.64799V15.12H135.679V1.07999H139.837C141.943 1.07999 144.337 1.78199 144.337 5.18399V5.544C144.337 8.96399 141.943 9.64799 139.837 9.64799H137.551ZM137.551 8.00999H139.891C140.971 8.00999 142.429 7.61399 142.429 5.48999V5.25599C142.429 3.13199 140.971 2.73599 139.891 2.73599H137.551V8.00999ZM148.188 1.07999V15.12H146.316V1.07999H148.188ZM160.285 1.07999V15.12H158.287L152.401 4.39199L152.473 7.50599V15.12H150.691V1.07999H152.689L158.575 11.808L158.503 8.69399V1.07999H160.285ZM167.665 15.336C164.119 15.336 162.391 13.32 162.391 8.46V7.73999C162.391 2.87999 164.119 0.863994 167.485 0.863994C170.599 0.863994 172.165 2.41199 172.165 5.72399V6.28199H170.275C170.275 3.72599 169.555 2.51999 167.611 2.51999H167.467C165.253 2.51999 164.299 4.17599 164.299 7.73999V8.46C164.299 12.024 165.217 13.68 167.611 13.68H167.755C168.943 13.68 169.807 13.248 170.293 12.798V9.61199H168.079V7.95599H172.165V13.698C171.301 14.526 169.969 15.336 167.665 15.336Z" fill="#121212"/>
</svg>
