<svg width="137" height="18" viewBox="0 0 137 18" fill="none" xmlns="http://www.w3.org/2000/svg">
<path d="M6.48006 15.228H3.87006L5.96046e-05 1.07999H2.01606L5.18406 13.122L8.33406 1.07999H10.3501L6.48006 15.228ZM13.9337 1.07999V15.12H12.0617V1.07999H13.9337ZM25.9766 8.46C25.9766 13.32 24.0686 15.12 20.3786 15.12H16.4366V1.07999H20.3786C24.0686 1.07999 25.9766 2.87999 25.9766 7.73999V8.46ZM18.3086 13.464H20.2526C22.8446 13.464 24.0506 12.024 24.0506 8.46V7.73999C24.0506 4.17599 22.8446 2.73599 20.2526 2.73599H18.3086V13.464ZM28.0909 1.07999H36.1909V2.73599H29.9629V7.12799H35.2909V8.78399H29.9629V13.464H36.1909V15.12H28.0909V1.07999ZM42.8264 15.336C39.4424 15.336 37.8044 13.32 37.8044 8.46V7.73999C37.8044 2.87999 39.4424 0.863994 42.8264 0.863994C46.1924 0.863994 47.8304 2.87999 47.8304 7.73999V8.46C47.8304 13.32 46.1924 15.336 42.8264 15.336ZM42.7544 13.68H42.8804C45.0404 13.68 45.9044 12.024 45.9044 8.46V7.73999C45.9044 4.17599 45.0404 2.51999 42.8804 2.51999H42.7544C40.5944 2.51999 39.7304 4.17599 39.7304 7.73999V8.46C39.7304 12.024 40.5944 13.68 42.7544 13.68ZM53.9365 8.748C50.8765 8.334 49.6165 7.05599 49.6165 4.96799V4.76999C49.6165 2.376 51.3805 0.863994 54.2425 0.863994C57.4645 0.863994 58.8505 2.44799 58.8505 5.48999V5.92199H56.9785C56.9785 3.54599 56.1865 2.51999 54.2605 2.51999H54.1345C52.6045 2.51999 51.5425 3.34799 51.5425 4.626V4.76999C51.5425 6.08399 52.1905 6.85799 54.5665 7.18199C57.6265 7.59599 58.9945 8.76599 58.9945 11.07V11.268C58.9945 13.824 57.2125 15.336 54.2425 15.336C51.1285 15.336 49.4725 13.716 49.4725 10.638V10.458H51.3445C51.3445 12.69 52.4785 13.68 54.1705 13.68H54.3145C56.0065 13.68 57.0685 12.78 57.0685 11.358V11.214C57.0685 9.792 56.2405 9.05399 53.9365 8.748ZM69.5519 -5.48363e-06L65.4119 17.28H63.6119L67.7519 -5.48363e-06H69.5519ZM85.3118 4.33799L81.7838 15.12H79.9658L76.4378 4.33799L76.5098 7.34399V15.12H74.6378V1.07999H77.3558L80.8658 11.88L84.3938 1.07999H87.1118V15.12H85.2398V7.34399L85.3118 4.33799ZM94.2424 15.336C90.8584 15.336 89.2204 13.32 89.2204 8.46V7.73999C89.2204 2.87999 90.8584 0.863994 94.2424 0.863994C97.6084 0.863994 99.2464 2.87999 99.2464 7.73999V8.46C99.2464 13.32 97.6084 15.336 94.2424 15.336ZM94.1704 13.68H94.2964C96.4564 13.68 97.3204 12.024 97.3204 8.46V7.73999C97.3204 4.17599 96.4564 2.51999 94.2964 2.51999H94.1704C92.0104 2.51999 91.1464 4.17599 91.1464 7.73999V8.46C91.1464 12.024 92.0104 13.68 94.1704 13.68ZM107.045 15.228H104.435L100.565 1.07999H102.581L105.749 13.122L108.899 1.07999H110.915L107.045 15.228ZM114.498 1.07999V15.12H112.626V1.07999H114.498ZM117.001 1.07999H125.101V2.73599H118.873V7.12799H124.201V8.78399H118.873V13.464H125.101V15.12H117.001V1.07999ZM131.017 8.748C127.957 8.334 126.697 7.05599 126.697 4.96799V4.76999C126.697 2.376 128.461 0.863994 131.323 0.863994C134.545 0.863994 135.931 2.44799 135.931 5.48999V5.92199H134.059C134.059 3.54599 133.267 2.51999 131.341 2.51999H131.215C129.685 2.51999 128.623 3.34799 128.623 4.626V4.76999C128.623 6.08399 129.271 6.85799 131.647 7.18199C134.707 7.59599 136.075 8.76599 136.075 11.07V11.268C136.075 13.824 134.293 15.336 131.323 15.336C128.209 15.336 126.553 13.716 126.553 10.638V10.458H128.425C128.425 12.69 129.559 13.68 131.251 13.68H131.395C133.087 13.68 134.149 12.78 134.149 11.358V11.214C134.149 9.792 133.321 9.05399 131.017 8.748Z" fill="#121212"/>
</svg>
