<svg width="116" height="18" viewBox="0 0 116 18" fill="none" xmlns="http://www.w3.org/2000/svg">
<path d="M10.6739 4.33799L7.14595 15.12H5.32795L1.79995 4.33799L1.87195 7.34399V15.12H-5.46575e-05V1.07999H2.71795L6.22795 11.88L9.75595 1.07999H12.4739V15.12H10.6019V7.34399L10.6739 4.33799ZM19.5146 15.336C16.2206 15.336 14.7986 14.004 14.7986 10.746V1.07999H16.6706V10.656C16.6706 12.888 17.5346 13.68 19.5146 13.68C21.4766 13.68 22.3406 12.888 22.3406 10.656V1.07999H24.2126V10.746C24.2126 14.004 22.7906 15.336 19.5146 15.336ZM30.5389 8.748C27.4789 8.334 26.2189 7.05599 26.2189 4.96799V4.76999C26.2189 2.376 27.9829 0.863994 30.8449 0.863994C34.0669 0.863994 35.4529 2.44799 35.4529 5.48999V5.92199H33.5809C33.5809 3.54599 32.7889 2.51999 30.8629 2.51999H30.7369C29.2069 2.51999 28.1449 3.34799 28.1449 4.626V4.76999C28.1449 6.08399 28.7929 6.85799 31.1689 7.18199C34.2289 7.59599 35.5969 8.76599 35.5969 11.07V11.268C35.5969 13.824 33.8149 15.336 30.8449 15.336C27.7309 15.336 26.0749 13.716 26.0749 10.638V10.458H27.9469C27.9469 12.69 29.0809 13.68 30.7729 13.68H30.9169C32.6089 13.68 33.6709 12.78 33.6709 11.358V11.214C33.6709 9.792 32.8429 9.05399 30.5389 8.748ZM39.5088 1.07999V15.12H37.6368V1.07999H39.5088ZM43.6317 8.46C43.6317 12.024 44.4597 13.68 46.6557 13.68H46.7817C48.6537 13.68 49.4097 12.492 49.4097 10.458H51.2997V10.638C51.2997 13.788 49.7697 15.336 46.6557 15.336C43.2897 15.336 41.7057 13.32 41.7057 8.46V7.73999C41.7057 2.87999 43.2897 0.863994 46.6557 0.863994C49.7697 0.863994 51.2997 2.41199 51.2997 5.72399V6.28199H49.4097C49.4097 3.72599 48.6897 2.51999 46.7817 2.51999H46.6557C44.4777 2.51999 43.6317 4.17599 43.6317 7.73999V8.46ZM61.9571 -5.48363e-06L57.8171 17.28H56.0171L60.1571 -5.48363e-06H61.9571ZM69.91 0.971995H72.52L76.39 15.12H74.374L73.492 11.736H68.956L68.074 15.12H66.04L69.91 0.971995ZM71.224 3.07799L69.388 10.08H73.06L71.224 3.07799ZM82.4267 15.336C79.1327 15.336 77.7107 14.004 77.7107 10.746V1.07999H79.5827V10.656C79.5827 12.888 80.4467 13.68 82.4267 13.68C84.3887 13.68 85.2527 12.888 85.2527 10.656V1.07999H87.1247V10.746C87.1247 14.004 85.7027 15.336 82.4267 15.336ZM98.995 8.46C98.995 13.32 97.087 15.12 93.397 15.12H89.455V1.07999H93.397C97.087 1.07999 98.995 2.87999 98.995 7.73999V8.46ZM91.327 13.464H93.271C95.863 13.464 97.069 12.024 97.069 8.46V7.73999C97.069 4.17599 95.863 2.73599 93.271 2.73599H91.327V13.464ZM103.071 1.07999V15.12H101.199V1.07999H103.071ZM110.29 15.336C106.906 15.336 105.268 13.32 105.268 8.46V7.73999C105.268 2.87999 106.906 0.863994 110.29 0.863994C113.656 0.863994 115.294 2.87999 115.294 7.73999V8.46C115.294 13.32 113.656 15.336 110.29 15.336ZM110.218 13.68H110.344C112.504 13.68 113.368 12.024 113.368 8.46V7.73999C113.368 4.17599 112.504 2.51999 110.344 2.51999H110.218C108.058 2.51999 107.194 4.17599 107.194 7.73999V8.46C107.194 12.024 108.058 13.68 110.218 13.68Z" fill="#121212"/>
</svg>
